<svg width="694" height="406" viewBox="0 0 694 406" fill="none" xmlns="http://www.w3.org/2000/svg">
<path opacity="0.1" d="M337.281 91.5802C365.893 87.732 392.971 77.1234 416.321 61.1066C451.291 37.0813 524.301 -3.79283 594.022 16.5922C690.273 44.5697 690.711 125.798 665.607 169.896C640.613 213.995 462.911 343.169 232.59 322.68C26.4952 304.271 -13.6275 93.7643 96.2165 55.5943C191.7 22.6246 224.149 106.765 337.281 91.5802Z" fill="#3A36DB"/>
<path d="M661.333 212.435C657.034 212.435 653.549 209.129 653.549 205.05C653.549 200.972 657.034 197.666 661.333 197.666C665.631 197.666 669.116 200.972 669.116 205.05C669.116 209.129 665.631 212.435 661.333 212.435Z" fill="#FFCDB3"/>
<path opacity="0.2" d="M339.047 405.795C214.205 405.795 113 402.349 113 398.099C113 393.848 214.205 390.402 339.047 390.402C463.888 390.402 565.093 393.848 565.093 398.099C565.093 402.349 463.888 405.795 339.047 405.795Z" fill="#3A36DB"/>
<path d="M388.039 99.5885L387.71 101.253L387.272 103.021L386.395 106.661C385.847 109.157 385.189 111.549 384.531 114.045C383.873 116.541 383.216 118.934 382.448 121.326C381.79 123.718 381.023 126.11 380.256 128.502C379.488 130.894 378.611 133.182 377.734 135.47C376.857 137.759 375.98 140.047 374.994 142.127C374.007 144.311 373.02 146.391 371.924 148.471C370.828 150.447 369.732 152.423 368.526 154.087C367.32 155.855 366.114 157.416 365.018 158.664C363.812 159.912 362.716 160.952 361.729 161.472C361.291 161.784 360.852 161.992 360.523 162.096C360.194 162.2 359.975 162.304 359.646 162.408H359.537L359.098 162.512L358.111 162.72L356.138 163.032L352.082 163.656L348.026 164.28L343.97 164.904C341.229 165.32 338.598 165.736 335.858 166.048L331.802 166.672C330.486 166.88 329.061 167.088 327.745 167.296L325.663 167.608L323.58 167.92C322.922 168.024 322.264 168.128 321.497 168.232C320.839 168.336 320.072 168.44 319.524 168.544L318.975 168.648C312.617 169.792 308.342 175.616 309.548 181.753C310.534 186.745 314.919 190.385 320.072 190.801L322.264 191.009C323.032 191.113 323.689 191.113 324.457 191.217C325.882 191.321 327.417 191.425 328.842 191.529L331.034 191.633L333.227 191.737C334.652 191.737 336.077 191.841 337.612 191.841C339.037 191.841 340.572 191.841 341.997 191.841C343.422 191.841 344.957 191.841 346.382 191.841C349.342 191.841 352.192 191.737 355.152 191.633C356.577 191.529 358.111 191.529 359.537 191.425L361.729 191.321L362.825 191.217H363.373L364.36 191.113C366.881 190.801 369.403 190.177 371.705 189.345C374.007 188.513 376.09 187.473 378.063 186.433C380.036 185.289 381.79 184.145 383.325 182.793C384.97 181.545 386.395 180.193 387.71 178.945C389.026 177.593 390.232 176.241 391.437 174.888C392.534 173.536 393.63 172.184 394.617 170.832C396.59 168.128 398.344 165.424 399.879 162.616C401.413 159.912 402.838 157.104 404.044 154.399C405.36 151.695 406.456 148.887 407.552 146.183C408.649 143.479 409.635 140.671 410.622 137.967C411.499 135.262 412.376 132.454 413.253 129.75C414.02 127.046 414.787 124.238 415.445 121.534C416.103 118.83 416.761 116.021 417.418 113.213C417.747 111.861 417.967 110.405 418.295 109.053L418.734 106.973L418.953 105.933L419.172 104.685C420.488 96.5723 414.568 88.9799 406.017 87.7319C397.686 86.4838 389.903 91.7881 388.258 99.4845L388.039 99.5885Z" fill="#FFAA8C"/>
<path d="M421.584 108.325C419.501 115.085 411.06 138.07 403.605 149.511L370.827 134.846C370.827 134.846 382.009 110.301 387.819 94.8042C389.683 89.8119 393.849 85.7557 399.22 83.9876C402.838 82.8435 407.113 82.5315 411.937 84.7156C421.364 88.9799 422.351 98.8604 422.241 103.749C422.351 105.413 422.022 106.869 421.584 108.325Z" fill="#FF69B4"/>
<path d="M297.268 349.514L288.607 362.827L272.164 355.962L279.618 341.609L297.268 349.514Z" fill="#FFAA8C"/>
<path d="M220.042 363.113L282.199 389.218C283.076 388.594 283.843 387.554 284.501 386.306C287.242 381.522 289.215 372.785 290.75 367.377C290.969 366.753 291.078 366.129 291.298 365.609C291.627 364.673 291.846 363.945 292.065 363.529C293.929 359.472 289.872 358.536 289.872 358.536C280.883 361.761 277.814 350.008 272.333 351.152C272.333 351.152 269.921 351.568 263.014 353.752C256.108 355.936 246.351 355.104 237.91 355C226.948 354.792 222.673 357.392 220.919 359.68C219.713 361.449 220.042 363.113 220.042 363.113Z" fill="#FF69B4"/>
<path d="M220.092 363.554L282.25 389.659C283.127 389.035 283.894 387.995 284.552 386.747L220.969 360.018C219.764 361.89 220.092 363.554 220.092 363.554Z" fill="#3A36DB"/>
<path d="M276.002 387.059L277.865 387.787C276.988 384.979 276.659 381.235 278.962 376.971C282.031 371.251 287.512 368.858 291.02 367.922C291.239 367.298 291.349 366.674 291.568 366.154C287.841 366.986 281.154 369.378 277.536 376.243C275.234 380.403 275.234 384.043 276.002 387.059Z" fill="#3A36DB"/>
<path d="M262.518 358.146C262.956 358.354 263.504 358.25 263.833 357.834C264.162 357.418 264.162 356.69 263.614 356.378L260.106 353.777C259.667 353.465 258.9 353.465 258.571 353.985C258.242 354.401 258.242 355.129 258.79 355.441L262.298 358.042C262.408 358.042 262.518 358.042 262.518 358.146Z" fill="#3A36DB"/>
<path d="M267.89 356.69C268.328 356.898 268.876 356.794 269.205 356.378C269.534 355.962 269.534 355.233 268.986 354.921L265.478 352.321C265.04 352.009 264.272 352.009 263.943 352.529C263.614 352.945 263.614 353.673 264.163 353.985L267.671 356.586C267.671 356.586 267.78 356.586 267.89 356.69Z" fill="#3A36DB"/>
<path d="M257.693 358.665C258.132 358.873 258.68 358.769 259.009 358.353C259.338 357.937 259.338 357.209 258.79 356.897L255.282 354.297C254.843 353.985 254.076 353.985 253.747 354.505C253.418 354.921 253.418 355.649 253.966 355.961L257.474 358.561C257.474 358.561 257.584 358.561 257.693 358.665Z" fill="#3A36DB"/>
<path d="M252.87 359.081C253.309 359.289 253.857 359.185 254.186 358.769C254.515 358.353 254.515 357.625 253.966 357.313L250.458 354.713C250.02 354.401 249.253 354.401 248.924 354.921C248.595 355.337 248.595 356.065 249.143 356.377L252.651 358.977C252.651 358.977 252.761 358.977 252.87 359.081Z" fill="#3A36DB"/>
<path d="M247.718 359.186C248.156 359.394 248.705 359.29 249.033 358.874C249.362 358.458 249.362 357.73 248.814 357.418L245.306 354.817C244.868 354.505 244.1 354.505 243.771 355.025C243.442 355.441 243.443 356.17 243.991 356.482L247.499 359.082C247.499 359.082 247.608 359.186 247.718 359.186Z" fill="#3A36DB"/>
<path d="M242.346 358.873C242.784 359.081 243.332 358.977 243.661 358.561C243.99 358.145 243.99 357.417 243.442 357.105L239.934 354.505C239.496 354.193 238.728 354.193 238.399 354.713C238.07 355.129 238.07 355.857 238.619 356.169L242.127 358.769C242.127 358.769 242.236 358.873 242.346 358.873Z" fill="#3A36DB"/>
<path d="M335.857 220.339C341.667 214.931 387.161 202.866 417.418 210.874C420.926 217.219 425.311 233.236 414.458 248.108C374.664 254.245 352.52 266.933 352.52 266.933C352.52 266.933 338.378 297.823 330.047 309.16C321.715 320.496 302.421 356.586 302.421 356.586L273.48 344.833C273.59 344.833 320.18 235.004 335.857 220.339Z" fill="#06152B"/>
<path d="M305.6 349.825C305.49 349.825 305.38 349.825 305.271 349.721L276.988 338.592C276.549 338.384 276.33 337.968 276.549 337.552C276.768 337.136 277.207 336.928 277.645 337.136L305.929 348.265C306.367 348.473 306.586 348.889 306.367 349.305C306.257 349.617 305.929 349.825 305.6 349.825Z" fill="#F1F4FA"/>
<path d="M300.886 347.537C300.776 347.537 300.666 347.537 300.557 347.433C300.118 347.225 299.899 346.809 300.118 346.393C300.228 346.289 306.148 332.248 319.96 312.279C333.663 292.518 348.024 259.028 348.244 258.716C348.463 258.3 348.901 258.092 349.34 258.3C349.778 258.508 349.997 258.924 349.778 259.34C349.669 259.652 335.198 293.246 321.385 313.111C307.682 332.872 301.763 346.809 301.763 346.913C301.434 347.329 301.214 347.537 300.886 347.537Z" fill="#F1F4FA"/>
<path d="M370.389 351.802L368.196 367.403H350.108L350.875 351.386L370.389 351.802Z" fill="#FFAA8C"/>
<path d="M305.659 393.898H373.736C374.284 393.066 374.503 391.818 374.613 390.362C375.051 384.85 373.188 376.218 372.311 370.705C372.201 370.081 372.091 369.457 371.982 368.937C371.872 368.001 371.763 367.273 371.763 366.649C371.763 362.177 367.597 362.905 367.597 362.905C360.691 369.353 352.907 359.681 348.303 362.905C348.303 362.905 346.33 364.257 340.958 368.833C335.586 373.409 326.378 376.53 318.595 379.546C308.509 383.602 305.659 387.554 305.111 390.258C304.672 392.546 305.659 393.898 305.659 393.898Z" fill="#FF69B4"/>
<path d="M305.71 394.339H373.787C374.335 393.507 374.554 392.259 374.664 390.803H305.162C304.723 392.987 305.71 394.339 305.71 394.339Z" fill="#3A36DB"/>
<path d="M366.88 394.339H368.853C366.88 392.155 364.907 388.827 365.236 384.043C365.565 377.698 369.621 373.33 372.361 371.146C372.252 370.522 372.142 369.898 372.032 369.378C368.963 371.562 363.92 376.346 363.482 384.043C363.372 388.515 365.016 391.947 366.88 394.339Z" fill="#3A36DB"/>
<path d="M342.324 373.019C342.872 373.019 343.311 372.707 343.42 372.187C343.53 371.667 343.201 371.043 342.653 370.939L338.378 369.899C337.83 369.795 337.172 370.107 337.062 370.627C336.953 371.147 337.281 371.771 337.83 371.875L342.105 372.915C342.105 373.019 342.215 373.019 342.324 373.019Z" fill="#3A36DB"/>
<path d="M346.49 369.69C347.038 369.69 347.477 369.378 347.586 368.858C347.696 368.338 347.367 367.714 346.819 367.61L342.544 366.57C341.996 366.466 341.338 366.778 341.228 367.298C341.119 367.818 341.447 368.442 341.996 368.546L346.271 369.586C346.381 369.69 346.381 369.69 346.49 369.69Z" fill="#3A36DB"/>
<path d="M338.051 375.41C338.599 375.41 339.037 375.098 339.147 374.578C339.257 374.058 338.928 373.434 338.38 373.33L334.104 372.289C333.556 372.185 332.898 372.497 332.789 373.018C332.679 373.538 333.008 374.162 333.556 374.266L337.831 375.306C337.831 375.41 337.941 375.41 338.051 375.41Z" fill="#3A36DB"/>
<path d="M333.773 377.699C334.321 377.699 334.76 377.387 334.87 376.867C334.979 376.347 334.65 375.723 334.102 375.619L329.827 374.579C329.279 374.475 328.621 374.787 328.511 375.307C328.402 375.827 328.731 376.451 329.279 376.555L333.554 377.595C333.554 377.595 333.664 377.699 333.773 377.699Z" fill="#3A36DB"/>
<path d="M329.169 379.779C329.717 379.779 330.156 379.467 330.265 378.947C330.375 378.427 330.046 377.803 329.498 377.699L325.222 376.659C324.674 376.555 324.016 376.867 323.907 377.387C323.797 377.907 324.126 378.531 324.674 378.635L328.95 379.675C328.95 379.779 329.059 379.779 329.169 379.779Z" fill="#3A36DB"/>
<path d="M324.127 381.546C324.675 381.546 325.114 381.234 325.223 380.714C325.333 380.194 325.004 379.57 324.456 379.466L320.18 378.426C319.632 378.322 318.975 378.634 318.865 379.154C318.755 379.674 319.084 380.298 319.632 380.402L323.908 381.442C323.908 381.546 324.017 381.546 324.127 381.546Z" fill="#3A36DB"/>
<path d="M389.245 93.6611C389.135 100.005 396.48 111.55 401.194 136.407C401.303 137.031 401.413 137.655 401.523 138.279C401.742 139.632 401.961 141.088 402.29 142.544C402.4 143.168 402.509 143.688 402.509 144.312C402.728 145.768 402.948 147.224 403.167 148.784C403.277 149.304 403.277 149.824 403.386 150.344C403.605 152.32 403.825 154.296 404.044 156.376C404.263 158.248 404.373 160.017 404.482 161.993C404.592 162.929 404.592 163.969 404.702 164.905C404.702 165.945 404.811 166.985 404.811 168.025C405.359 179.154 406.017 205.259 405.031 219.82C426.188 232.508 470.257 233.236 499.966 212.227C501.72 202.243 498.979 168.337 498.102 158.248C497.883 156.272 497.663 154.192 497.444 152.216C496.238 142.544 494.155 132.975 491.634 123.095C491.524 122.575 491.305 122.055 491.196 121.431C489.113 113.214 486.811 104.79 484.289 95.8452C479.466 78.0603 470.915 68.0757 459.624 68.4918C454.362 68.5958 450.086 67.9717 446.798 67.2437C446.359 67.1397 446.03 67.0357 445.701 66.9317C441.755 65.8916 439.453 64.6436 439.453 64.6436L414.897 69.1158C413.362 72.444 411.06 74.7321 408.429 76.5002C408.1 76.7082 407.881 76.9162 407.552 77.1242C399.659 82.2205 389.354 83.2605 389.245 93.6611Z" fill="#FF69B4"/>
<path d="M402.29 142.543C402.399 143.167 402.509 143.687 402.509 144.311C402.728 145.767 402.947 147.223 403.167 148.783C403.276 149.303 403.276 149.823 403.386 150.343C403.605 152.32 403.824 154.296 404.044 156.376C404.263 158.248 404.373 160.016 404.482 161.992C404.592 162.928 404.592 163.968 404.701 164.904L411.389 172.913L419.172 152.84L405.03 135.471L402.29 142.543Z" fill="#FF69B4"/>
<path d="M440.878 149.72L432.875 169.69L419.063 152.841L426.956 132.144L440.878 149.72Z" fill="#FF69B4"/>
<path d="M462.803 146.809L454.581 166.778L440.878 149.721L448.99 129.128L462.803 146.809Z" fill="#AD2F24"/>
<path d="M484.617 144.207L476.176 163.968L462.692 146.807L471.024 126.318L484.617 144.207Z" fill="#FF69B4"/>
<path d="M489.881 205.467C490.21 205.467 490.429 205.259 490.429 204.947C492.841 149.408 481.769 108.43 481.659 108.014C481.549 107.702 481.33 107.598 481.001 107.598C480.672 107.702 480.563 107.91 480.563 108.222C480.672 108.638 491.744 149.408 489.333 204.843C489.333 205.155 489.552 205.467 489.881 205.467Z" fill="white"/>
<path d="M426.517 89.293C425.609 89.293 424.872 88.5945 424.872 87.7329C424.872 86.8713 425.609 86.1729 426.517 86.1729C427.425 86.1729 428.161 86.8713 428.161 87.7329C428.161 88.5945 427.425 89.293 426.517 89.293Z" fill="white"/>
<path d="M426.954 96.9883C426.046 96.9883 425.31 96.2899 425.31 95.4282C425.31 94.5666 426.046 93.8682 426.954 93.8682C427.862 93.8682 428.599 94.5666 428.599 95.4282C428.599 96.2899 427.862 96.9883 426.954 96.9883Z" fill="white"/>
<path d="M425.858 107.181C429.915 105.933 433.861 103.645 437.698 100.213C444.275 94.3886 448.112 87.2122 448.112 87.2122C448.222 86.9002 448.112 86.5882 447.893 86.4842C447.674 86.2762 447.345 86.3802 447.126 86.6922C447.126 86.7962 443.289 93.7646 436.931 99.4849C428.38 107.077 419.5 109.053 410.511 105.413C410.182 105.309 409.963 105.413 409.853 105.725C409.744 106.037 409.853 106.349 410.182 106.453C415.334 108.637 420.596 108.949 425.749 107.389C425.749 107.181 425.749 107.181 425.858 107.181Z" fill="white"/>
<path d="M424.653 80.6599C430.463 79.6199 436.164 73.6916 436.493 73.3796C436.712 73.1715 436.712 72.8595 436.493 72.5475C436.274 72.2355 435.945 72.3395 435.725 72.5475C435.616 72.6515 425.969 82.532 419.83 78.8918C419.611 78.6838 419.282 78.7878 419.062 79.0999C418.953 79.4119 419.062 79.7239 419.282 79.8279C420.926 80.7639 422.79 80.972 424.653 80.6599Z" fill="white"/>
<path d="M435.506 197.043C437.698 196.627 439.891 196.107 442.083 195.275C447.455 193.403 452.826 190.283 458.088 186.122C467.078 179.05 472.669 171.146 472.669 171.042C472.888 170.834 472.778 170.418 472.559 170.314C472.34 170.106 472.011 170.21 471.792 170.418C471.792 170.522 466.201 178.322 457.431 185.29C449.319 191.739 436.602 198.811 422.351 195.899C422.022 195.795 421.803 196.003 421.693 196.315C421.693 196.627 421.803 196.939 422.132 196.939C426.407 197.875 430.902 197.875 435.506 197.043Z" fill="white"/>
<path d="M432.435 36.4571C432.764 39.1612 436.82 37.8092 438.793 35.9371C439.67 35.105 439.232 33.2329 439.122 30.9448C439.013 28.1367 438.355 30.0088 440.438 25.9525C442.63 21.5843 439.013 15.136 436.053 15.552C436.053 15.552 438.574 8.99966 432.435 5.35946C426.954 2.13529 423.446 5.77549 423.446 5.77549C423.446 5.77549 421.473 0.367202 416.43 0.471208C411.387 0.575213 408.427 5.56747 408.427 5.56747C408.427 5.56747 404.371 1.92728 398.999 4.94344C393.628 7.9596 396.259 11.8078 396.259 11.8078C396.259 11.8078 390.339 12.1198 388.914 16.9041C387.599 20.9603 390.887 23.3524 390.887 23.3524C390.887 23.3524 388.695 25.5365 390.12 29.9048C391.326 33.6489 394.286 33.4409 394.834 36.0411C395.163 37.4972 395.82 39.1612 396.368 40.4093C396.807 41.3454 398.122 42.8014 399.109 42.6974C400.425 42.4894 400.863 40.2013 400.425 38.9532C399.767 36.8731 398.999 33.857 399.986 31.7769C401.63 28.4487 399.548 25.0165 402.836 23.3524C406.125 21.6883 418.951 25.2245 426.296 18.9842C426.296 18.9842 426.735 23.6644 429.914 24.4965C433.093 25.3285 432.545 29.0727 432.545 32.1929C432.325 33.4409 432.435 36.4571 432.435 36.4571Z" fill="#06152B"/>
<path d="M413.8 65.1629L415.006 71.0912C415.883 71.5072 416.65 71.9232 417.527 72.1312C429.586 76.3955 439.781 66.619 439.781 66.619L435.725 46.1299L416.541 62.8748L413.8 65.1629Z" fill="#FFAA8C"/>
<path d="M413.801 65.1632L415.007 71.0915C415.884 71.5075 416.651 71.9236 417.528 72.1316C426.079 67.0353 430.902 56.6348 430.902 56.6348L416.432 62.8751L413.801 65.1632Z" fill="#D0886F"/>
<path d="M400.754 40.3051C400.754 40.3051 396.369 36.9769 395.163 41.3451C393.957 45.7133 397.136 53.4097 402.179 51.1216L400.754 40.3051Z" fill="#FFAA8C"/>
<path d="M399.767 54.9699C399.767 54.9699 402.179 67.2425 415.553 64.7464C428.927 62.3542 435.943 50.7056 436.382 50.1856L436.053 47.5855L434.189 34.0648L433.203 26.8884C433.203 26.8884 432.326 13.7837 418.952 13.6797C409.195 13.6797 400.644 16.6958 397.136 22.2081C397.027 22.4161 396.917 22.5202 396.807 22.7282C395.711 24.6003 395.273 26.7844 395.492 29.1765L397.684 42.0732L398.232 45.1933L399.767 54.9699Z" fill="#FFAA8C"/>
<path d="M420.377 28.033C419.938 29.5931 418.404 30.5291 416.759 30.2171C415.773 30.0091 414.676 29.8011 413.58 29.8011C411.936 29.8011 410.73 28.449 410.84 26.8889C410.73 26.8889 416.869 25.2248 420.377 28.033Z" fill="#06152B"/>
<path d="M396.15 32.4011C397.137 33.7531 399 34.0651 400.426 33.1291C401.193 32.6091 402.18 32.089 403.276 31.673C404.811 31.049 405.468 29.3849 404.701 28.0328C404.701 27.9288 398.343 28.5529 396.15 32.4011Z" fill="#06152B"/>
<path d="M397.001 22.4582C399.019 21.396 400.7 21.7147 404.287 22.5644C409.556 23.7329 414.6 20.9711 418.859 17.7845C423.231 14.5979 426.706 17.3596 425.473 19.6965C424.24 22.1395 424.8 23.8391 427.154 26.1759C429.508 28.5128 424.576 30.7434 427.827 32.3367C429.172 32.974 429.396 34.3549 429.172 35.7358C428.948 37.2229 430.405 38.3913 431.862 37.8602C433.32 37.2229 435.001 34.1425 435.001 34.1425L433.992 26.8132C433.992 26.8132 433.095 13.4295 419.42 13.3232C409.443 13.3232 400.7 16.4036 397.113 22.0333C397.225 22.1395 397.113 22.2458 397.001 22.4582Z" fill="#06152B"/>
<path d="M420.052 41.3213C417.673 41.75 415.598 41.3657 415.417 40.4628C415.236 39.5599 417.018 38.4804 419.397 38.0517C421.776 37.623 423.852 38.0073 424.032 38.9102C424.213 39.8131 422.431 40.8925 420.052 41.3213Z" fill="#FD9983"/>
<path d="M398.122 45.1935C398.451 45.1935 398.78 45.0895 399.219 45.0895C401.63 44.6735 403.384 43.6335 403.165 42.6974C402.946 41.7614 400.863 41.4493 398.561 41.8654C398.232 41.9694 397.903 41.9694 397.684 42.0734L398.122 45.1935Z" fill="#FD9983"/>
<path d="M415.471 37.7637C414.757 37.8924 413.977 36.9902 413.729 35.7488C413.48 34.5073 413.857 33.3967 414.571 33.268C415.285 33.1394 416.065 34.0416 416.313 35.283C416.562 36.5245 416.185 37.6351 415.471 37.7637Z" fill="#06152B"/>
<path d="M402.525 40.0509C401.811 40.1795 401.031 39.2773 400.782 38.0359C400.534 36.7944 400.911 35.6838 401.625 35.5552C402.338 35.4265 403.118 36.3287 403.367 37.5701C403.616 38.8116 403.238 39.9222 402.525 40.0509Z" fill="#06152B"/>
<path d="M408.647 49.1458C413.361 48.3137 416.43 43.7375 416.54 43.7375C416.65 43.5295 416.65 43.2175 416.321 43.0095C416.101 42.9055 415.773 42.9055 415.553 43.2175C415.334 43.5295 410.511 50.4979 403.933 47.5857C403.714 47.4817 403.385 47.5857 403.166 47.7937C403.056 48.0017 403.166 48.3137 403.385 48.5218C405.358 49.3538 407.112 49.4578 408.647 49.1458Z" fill="#06152B"/>
<path d="M431.229 45.9219C431.339 46.0259 433.751 49.4581 436.382 50.0821L436.053 47.482C436.053 47.586 433.86 47.586 431.229 45.9219Z" fill="#06152B"/>
<path d="M431.887 37.0811C431.887 37.0811 435.724 29.5927 440.548 34.065C444.494 37.8091 440.877 49.8738 433.97 47.1696L431.887 37.0811Z" fill="#FFAA8C"/>
<path d="M434.19 45.0898C434.409 45.0898 434.628 44.7778 434.628 44.5697C434.19 39.4735 438.246 36.9773 438.465 36.8733C438.684 36.7693 438.794 36.3533 438.575 36.1453C438.465 35.9373 438.136 35.8333 437.807 35.9373C437.588 36.0413 433.094 38.8494 433.532 44.5697C433.642 44.8818 433.861 45.0898 434.19 45.0898Z" fill="#06152B"/>
<path d="M438.575 41.1379C438.685 41.1379 438.904 41.0339 438.904 40.8259C439.014 40.6179 438.904 40.3059 438.685 40.0979C438.466 39.9939 436.273 38.8498 434.739 39.5779C434.519 39.6819 434.3 39.9939 434.519 40.3059C434.629 40.5139 434.958 40.7219 435.287 40.5139C436.164 40.0979 437.698 40.7219 438.247 41.0339C438.356 41.1379 438.466 41.1379 438.575 41.1379Z" fill="#06152B"/>
<path d="M389.353 40.4087L397.246 39.2646L397.465 40.3047L389.572 41.4488C389.243 41.4488 389.024 41.3448 388.914 41.0327C388.805 40.7207 389.024 40.5127 389.353 40.4087Z" fill="#3A36DB"/>
<path d="M420.267 43.5293C425.31 42.5933 428.709 38.017 427.722 33.1288C426.735 28.3445 421.912 25.1204 416.759 26.0564C411.717 26.9925 408.318 31.5687 409.305 36.457C410.292 41.3452 415.225 44.4654 420.267 43.5293ZM416.979 27.2005C421.473 26.3684 425.749 29.1766 426.626 33.4408C427.503 37.705 424.543 41.7612 420.048 42.5933C415.554 43.4253 411.278 40.6172 410.401 36.3529C409.634 32.0887 412.594 28.0325 416.979 27.2005Z" fill="#3A36DB"/>
<path d="M398.561 47.4805C403.604 46.5444 407.003 41.9682 406.016 37.0799C405.029 32.2957 400.206 29.0715 395.053 30.0076C390.011 30.9436 386.612 35.5199 387.599 40.4081C388.695 45.1924 393.519 48.4165 398.561 47.4805ZM395.382 31.0476C399.877 30.2156 404.152 33.0237 405.029 37.288C405.906 41.5522 402.946 45.6084 398.452 46.4404C393.957 47.2725 389.682 44.4643 388.805 40.2001C387.928 35.9359 390.888 31.8797 395.382 31.0476Z" fill="#3A36DB"/>
<path d="M438.903 33.0242C439.013 33.0242 439.013 33.0242 439.123 32.9202C439.342 32.8161 439.451 32.4001 439.342 32.1921C435.724 26.6798 426.735 31.4641 426.625 31.4641C426.406 31.5681 426.296 31.8801 426.406 32.1921C426.516 32.4001 426.845 32.5041 427.173 32.4001C427.283 32.4001 435.286 28.0319 438.355 32.7121C438.465 33.0242 438.684 33.1282 438.903 33.0242Z" fill="#3A36DB"/>
<path d="M409.634 42.8016C409.963 42.6976 410.072 42.4896 410.072 42.1776C409.963 41.8656 409.743 41.7616 409.415 41.7616C407.441 42.0736 406.345 41.3456 406.016 40.9295C407.332 36.4573 408.538 31.8811 408.538 31.7771C408.647 31.4651 408.428 31.257 408.099 31.153C407.77 31.049 407.551 31.257 407.441 31.5691C407.441 31.5691 406.126 36.3533 404.81 40.9295C404.81 41.0336 404.81 41.2416 404.92 41.3456C405.03 41.5536 406.455 43.4257 409.634 42.8016Z" fill="#06152B"/>
<path d="M405.14 35.8333C405.249 35.8333 405.359 35.7293 405.468 35.6253C406.674 33.8572 409.196 34.6893 409.196 34.6893C409.525 34.7933 409.853 34.6893 409.853 34.3773C409.963 34.0653 409.853 33.7532 409.525 33.7532C408.319 33.3372 405.797 33.1292 404.482 35.0013C404.263 35.2093 404.372 35.5213 404.591 35.7293C404.92 35.8333 405.03 35.9373 405.14 35.8333Z" fill="#3A36DB"/>
<path d="M438.357 59.6509C438.357 59.6509 447.456 59.4429 449.319 67.6593L443.838 79.2039C443.838 79.2039 438.686 72.5476 426.627 72.9636C426.517 72.9636 435.507 66.6192 438.357 59.6509Z" fill="white"/>
<path d="M419.721 72.755C419.721 72.755 415.226 71.0909 414.02 66.5146C414.02 66.5146 406.018 70.8829 406.127 77.8512L413.472 81.2834C413.582 81.3874 416.103 75.2511 419.721 72.755Z" fill="white"/>
<path d="M500.184 211.291C500.184 211.291 514.216 263.918 441.425 263.918C402.508 263.918 383.982 260.382 383.982 260.382C383.982 260.382 382.995 292.935 381.241 306.768C379.378 320.497 373.019 354.818 373.019 354.818L342.324 357.107C342.324 357.107 337.391 237.812 356.247 226.788C374.993 215.763 402.07 215.451 448.441 211.291C448.441 211.083 490.099 204.427 500.184 211.291Z" fill="#06152B"/>
<path d="M368.853 345.146C368.744 345.146 368.744 345.146 368.634 345.146C368.196 345.042 367.867 344.626 367.976 344.21C372.252 327.465 373.896 303.336 375.212 284.095C376.527 265.062 377.294 255.077 379.377 253.309C381.679 251.333 388.476 252.061 399.768 253.205C413.8 254.661 434.957 256.741 457.759 254.245C469.05 252.997 477.82 248.837 483.63 241.765C494.045 229.076 491.633 211.291 491.633 211.083C491.523 210.667 491.852 210.251 492.4 210.147C492.839 210.043 493.277 210.355 493.387 210.875C493.497 211.603 495.908 229.492 485.056 242.701C478.917 250.085 469.927 254.557 458.088 255.805C435.067 258.301 413.8 256.117 399.768 254.765C390.011 253.829 382.337 252.997 380.583 254.453C380.145 254.765 379.377 256.429 378.61 263.606C378.062 268.91 377.514 275.982 376.966 284.199C375.65 303.544 373.896 327.673 369.621 344.626C369.621 344.938 369.182 345.146 368.853 345.146Z" fill="#F1F4FA"/>
<path d="M342.763 347.538C342.324 347.538 341.995 347.226 341.886 346.81C341.886 346.394 342.215 345.978 342.653 345.978L374.006 344.21C374.444 344.21 374.883 344.522 374.883 344.938C374.883 345.354 374.554 345.77 374.115 345.77L342.763 347.538Z" fill="#F1F4FA"/>
<path d="M449.319 90.6446L449.209 92.7247L449.1 94.9088C448.99 96.3649 448.881 97.925 448.771 99.381C448.442 102.397 448.223 105.309 447.784 108.326C447.565 109.782 447.455 111.342 447.236 112.798C447.017 114.254 446.798 115.71 446.578 117.27C446.14 120.182 445.592 123.094 445.044 126.006C444.496 128.919 443.838 131.727 443.18 134.535C442.851 135.887 442.413 137.343 442.084 138.695C441.645 140.047 441.316 141.399 440.878 142.647C440.001 145.247 439.014 147.744 438.028 150.136C436.931 152.424 435.835 154.608 434.629 156.376C433.423 158.144 432.218 159.496 431.231 160.328C430.792 160.744 430.354 161.056 430.025 161.16L429.915 161.264H429.806C429.587 161.368 429.258 161.472 429.038 161.576L428.6 161.784L428.161 161.992C427.833 162.096 427.613 162.2 427.284 162.304C426.079 162.72 424.763 163.136 423.448 163.552C422.132 163.968 420.707 164.28 419.172 164.592C416.212 165.321 413.252 165.945 410.183 166.465C407.114 166.985 403.934 167.609 400.755 168.025C399.221 168.233 397.576 168.545 396.041 168.753C394.397 168.961 392.862 169.273 391.218 169.481C388.039 169.897 384.75 170.313 381.571 170.729L371.924 171.873H371.595C365.127 172.705 360.633 178.321 361.4 184.354C362.167 189.762 366.881 193.818 372.472 194.026L373.788 194.13H375.103C375.98 194.13 376.857 194.234 377.734 194.234C379.488 194.234 381.132 194.338 382.886 194.338C386.285 194.338 389.793 194.338 393.191 194.234C394.945 194.234 396.699 194.13 398.344 194.026C400.098 193.922 401.852 193.818 403.606 193.714C407.114 193.506 410.621 193.298 414.129 192.882C417.637 192.466 421.255 192.05 424.873 191.53C428.49 190.906 432.218 190.178 436.164 189.138C436.712 189.034 437.151 188.826 437.699 188.722L438.466 188.514L439.234 188.306C439.782 188.098 440.33 187.994 440.768 187.786H440.878H440.988L441.207 187.682L441.755 187.474C442.084 187.37 442.413 187.162 442.742 187.058C445.373 185.914 447.894 184.458 449.977 182.897C454.252 179.777 457.322 176.241 459.953 172.705C462.474 169.169 464.447 165.737 466.201 162.304C467.846 158.872 469.271 155.44 470.477 152.008C471.134 150.344 471.682 148.576 472.231 146.912C472.779 145.247 473.217 143.479 473.656 141.815C474.533 138.487 475.41 135.055 476.067 131.727C476.725 128.399 477.383 125.07 477.931 121.742C478.15 120.078 478.479 118.414 478.698 116.75C478.918 115.086 479.137 113.422 479.356 111.758C479.685 108.43 480.014 105.101 480.233 101.773C480.343 100.109 480.452 98.445 480.562 96.7809L480.672 94.2848V93.0367V91.5806C480.891 83.3642 473.985 76.6038 465.324 76.3958C456.883 76.2918 449.867 82.4281 449.429 90.3326L449.319 90.6446Z" fill="#FFAA8C"/>
<path d="M376.528 170C376.528 170 380.584 182.377 378.063 192.361C376.528 193.401 374.116 193.921 372.253 193.505C372.253 193.505 374.774 182.481 370.718 170C372.582 169.272 374.555 169.272 376.528 170Z" fill="#06152B"/>
<path d="M376.199 192.258C372.082 192.258 368.744 189.092 368.744 185.186C368.744 181.28 372.082 178.113 376.199 178.113C380.316 178.113 383.653 181.28 383.653 185.186C383.653 189.092 380.316 192.258 376.199 192.258Z" fill="#06152B"/>
<path d="M376.528 190.178C379.487 189.97 381.68 187.578 381.57 184.769C381.351 181.961 378.83 179.881 375.87 179.985C372.91 180.193 370.717 182.585 370.827 185.393C371.046 188.202 373.677 190.386 376.528 190.178Z" fill="white"/>
<path d="M443.838 169.585C443.947 169.585 444.057 169.585 444.167 169.481C444.386 169.273 444.386 168.961 444.167 168.753C439.343 163.657 431.669 160.537 431.341 160.433C431.012 160.329 430.792 160.433 430.573 160.745C430.464 161.057 430.573 161.265 430.902 161.473C431.012 161.473 438.685 164.593 443.29 169.585C443.509 169.585 443.618 169.585 443.838 169.585Z" fill="#D0886F"/>
<path d="M442.631 163.033C442.851 163.033 443.07 162.825 443.179 162.617C443.289 162.305 443.07 162.097 442.741 161.993C442.522 161.889 436.383 160.641 432.217 160.849C431.888 160.849 431.669 161.161 431.669 161.369C431.669 161.681 431.998 161.889 432.217 161.889C436.164 161.681 442.412 163.033 442.412 163.033C442.631 163.033 442.631 163.033 442.631 163.033Z" fill="#D0886F"/>
<path d="M484.288 92.8285C484.178 99.7969 482.096 124.134 478.039 137.031L442.411 130.791C442.411 130.791 446.577 104.373 448.112 87.9403C448.55 82.636 451.51 77.7477 456.224 74.7316C459.403 72.7555 463.569 71.4034 468.721 72.3394C479.026 74.2115 482.644 83.468 483.85 88.1483C484.178 89.8124 484.288 91.2684 484.288 92.8285Z" fill="#FF69B4"/>
<path d="M478.04 137.551C478.259 137.551 478.479 137.447 478.588 137.239C485.166 117.582 484.618 97.8208 484.618 97.6128C484.618 97.3008 484.398 97.0928 484.07 97.0928C483.741 97.0928 483.521 97.3008 483.521 97.6128C483.521 97.8208 484.07 117.374 477.492 136.927C477.382 137.239 477.602 137.447 477.821 137.551C477.931 137.551 477.931 137.551 478.04 137.551Z" fill="white"/>
<path d="M442.412 131.311C442.632 131.311 442.851 131.103 442.96 130.895C445.043 119.662 447.894 94.9092 447.894 94.7012C447.894 94.3892 447.674 94.1812 447.455 94.0771C447.126 94.0771 446.907 94.2852 446.797 94.4932C446.797 94.7012 443.947 119.454 441.864 130.583C441.755 130.999 441.974 131.311 442.412 131.311C442.303 131.311 442.412 131.311 442.412 131.311Z" fill="white"/>
<path d="M497.114 337.45H398.78C396.478 337.45 394.614 335.682 394.614 333.498C394.614 331.314 396.478 329.546 398.78 329.546H497.114C499.416 329.546 501.279 331.314 501.279 333.498C501.279 335.682 499.416 337.45 497.114 337.45Z" fill="#788B9A"/>
<path d="M389.682 397.773C389.462 397.773 389.353 397.773 389.134 397.773C386.831 397.461 385.297 395.485 385.516 393.301L403.494 266.415C403.823 264.438 405.577 262.982 407.66 262.982H487.905C489.988 262.982 491.742 264.438 492.071 266.415L509.721 393.405C510.05 395.589 508.405 397.565 506.103 397.877C503.801 398.19 501.718 396.629 501.389 394.445L484.178 270.991H411.168L393.738 394.549C393.519 396.421 391.765 397.773 389.682 397.773Z" fill="#788B9A"/>
<path d="M430.901 266.935H483.082C499.636 266.935 517.285 258.406 519.807 242.909C523.205 222.212 524.082 202.139 523.095 183.73C521.999 162.929 510.817 143.584 493.497 130.688C493.497 130.688 506.432 193.715 497.005 233.133C491.523 255.598 430.901 266.935 430.901 266.935Z" fill="#788B9A"/>
<path d="M294.419 195.273H420.159C420.488 195.273 420.707 195.065 420.707 194.753C420.707 191.009 417.528 188.097 413.691 188.097H294.529C294.2 188.097 293.981 188.305 293.981 188.617V194.857C293.871 195.065 294.2 195.273 294.419 195.273Z" fill="#788B9A"/>
<path d="M252.097 128.901L267.773 191.929C268.212 193.593 269.747 194.841 271.61 194.841H368.299C370.821 194.841 372.684 192.553 372.136 190.265L356.46 127.237C356.021 125.573 354.487 124.325 352.623 124.325H255.934C253.413 124.325 251.549 126.613 252.097 128.901Z" fill="#788B9A"/>
<path d="M302.979 159.834C303.966 164.826 309.008 168.779 314.161 168.779C319.313 168.779 322.821 164.722 321.835 159.834C320.848 154.842 315.805 150.89 310.653 150.89C305.501 150.89 301.993 154.842 302.979 159.834Z" fill="white"/>
<path d="M349.122 124.757L365.785 195.169H368.635C371.157 195.169 373.02 192.881 372.472 190.593L356.796 127.565C356.357 125.901 354.823 124.653 352.959 124.653H349.122V124.757Z" fill="#788B9A"/>
<path d="M158.704 200.265V205.153C158.704 207.962 161.225 210.25 164.295 210.25H549.845C552.914 210.25 555.436 207.962 555.436 205.153V200.265C555.436 197.457 552.914 195.169 549.845 195.169H164.295C161.115 195.169 158.704 197.457 158.704 200.265Z" fill="#3A36DB"/>
<path d="M179.971 222.626H522.987C530.003 222.626 535.594 217.218 535.594 210.666V210.146H167.255V210.666C167.364 217.218 172.955 222.626 179.971 222.626Z" fill="#3A36DB"/>
<path d="M174.49 284.405H523.426V293.038H174.49V284.405Z" fill="#3A36DB"/>
<path d="M540.088 399.331L495.142 222.626H510.928L555.874 399.331H540.088Z" fill="#3A36DB"/>
<path d="M159.8 399.331L204.746 222.626H188.96L144.014 399.331H159.8Z" fill="#3A36DB"/>
<path d="M158.594 202.658H555.326V204.842H158.594V202.658Z" fill="#3A36DB"/>
<path d="M520.072 154.478L524.948 155.187L519.305 190.142L514.429 189.433L520.072 154.478Z" fill="#3A36DB"/>
<path d="M520.076 154.503L524.899 155.232L523.803 151.695L523.255 149.823L522.159 151.383L520.076 154.503Z" fill="#FF8C64"/>
<path d="M514.816 186.946L519.692 187.654L519.277 190.225L514.401 189.516L514.816 186.946Z" fill="#06152B"/>
<path d="M514.375 191.529L518.651 192.153C518.87 192.153 518.98 192.049 518.98 191.841L519.309 190.073L514.375 189.345L514.047 191.113C514.047 191.321 514.156 191.529 514.375 191.529Z" fill="#EF452F"/>
<path d="M522.159 151.383L523.804 151.695L523.256 149.823L522.159 151.383Z" fill="#06152B"/>
<path d="M519.679 187.656L514.803 186.947L515.101 185.097L519.978 185.805L519.679 187.656Z" fill="#F68407"/>
<path d="M523.474 156.791L519.308 182.688C519.308 182.896 519.089 183 518.869 183C518.65 183 518.541 182.792 518.541 182.584L522.706 156.687C522.706 156.479 522.925 156.375 523.145 156.375C523.364 156.375 523.474 156.583 523.474 156.791Z" fill="#3A36DB"/>
<path d="M521.501 156.48L517.335 182.377C517.335 182.585 517.116 182.689 516.897 182.689C516.678 182.689 516.568 182.481 516.568 182.273L520.734 156.375C520.734 156.167 520.953 156.063 521.172 156.063C521.391 156.063 521.501 156.271 521.501 156.48Z" fill="#3A36DB"/>
<path d="M511.254 154.601L516.188 154.616L516.066 189.978L511.133 189.963L511.254 154.601Z" fill="#03A89E"/>
<path d="M511.196 154.608L516.129 154.712L514.485 151.279L513.717 149.615L512.84 151.279L511.196 154.608Z" fill="#FF8C64"/>
<path d="M511.088 187.466L516.021 187.481L516.013 190.082L511.079 190.066L511.088 187.466Z" fill="#06152B"/>
<path d="M511.414 192.05H515.69C515.909 192.05 516.019 191.946 516.019 191.738V189.97H511.085V191.738C511.085 191.946 511.195 192.05 511.414 192.05Z" fill="#EF452F"/>
<path d="M512.839 151.28H514.483L513.716 149.616L512.839 151.28Z" fill="#06152B"/>
<path d="M516.023 187.483L511.09 187.468L511.096 185.596L516.029 185.611L516.023 187.483Z" fill="#3C7341"/>
<path d="M514.924 156.375L514.814 182.585C514.814 182.793 514.595 182.897 514.485 182.897C514.266 182.897 514.156 182.689 514.156 182.585L514.266 156.375C514.266 156.167 514.485 156.063 514.595 156.063C514.705 156.063 514.924 156.167 514.924 156.375Z" fill="#03A89E"/>
<path d="M512.949 156.376L512.84 182.586C512.84 182.794 512.62 182.898 512.511 182.898C512.291 182.898 512.182 182.69 512.182 182.586L512.291 156.376C512.291 156.168 512.511 156.064 512.62 156.064C512.84 156.064 512.949 156.168 512.949 156.376Z" fill="#03A89E"/>
<path d="M502.664 155.138L507.548 154.479L512.792 189.491L507.908 190.15L502.664 155.138Z" fill="#06152B"/>
<path d="M502.646 155.128L507.579 154.503L505.496 151.383L504.4 149.823L503.742 151.591L502.646 155.128Z" fill="#FF8C64"/>
<path d="M507.51 187.636L512.395 186.978L512.78 189.552L507.896 190.21L507.51 187.636Z" fill="#06152B"/>
<path d="M508.566 192.154L512.841 191.53C513.06 191.53 513.17 191.322 513.17 191.218L512.951 189.45L508.018 190.074L508.237 191.842C508.237 192.05 508.346 192.154 508.566 192.154Z" fill="#EF452F"/>
<path d="M503.742 151.591L505.496 151.383L504.4 149.823L503.742 151.591Z" fill="#06152B"/>
<path d="M512.427 186.903L507.543 187.562L507.265 185.708L512.15 185.049L512.427 186.903Z" fill="#3A36DB"/>
<path d="M506.593 156.375L510.43 182.273C510.43 182.481 510.32 182.689 510.101 182.689C509.882 182.689 509.662 182.585 509.662 182.377L505.825 156.48C505.825 156.271 505.935 156.063 506.154 156.063C506.374 156.063 506.593 156.167 506.593 156.375Z" fill="#06152B"/>
<path d="M504.729 156.687L508.565 182.585C508.565 182.793 508.456 183.001 508.237 183.001C508.017 183.001 507.798 182.897 507.798 182.689L503.961 156.791C503.961 156.583 504.071 156.375 504.29 156.375C504.509 156.271 504.619 156.479 504.729 156.687Z" fill="#06152B"/>
<path d="M501.001 168.649L501.329 170.522L501.549 172.29L501.878 174.89L502.097 176.554L502.535 179.258L502.755 180.922L503.083 183.522L503.303 185.186L503.632 187.89L503.851 189.555L504.289 192.259L504.509 193.819L504.728 195.275H524.131L524.351 193.819L524.57 192.259L524.899 189.555L525.118 187.89L525.447 185.186L525.666 183.522L526.105 180.922L526.324 179.258L526.653 176.554L526.872 174.89L527.201 172.29L527.42 170.522L527.749 168.649H501.001Z" fill="#FF69B4"/>
<path d="M501.33 170.521L501.549 172.29H527.202L527.421 170.521H501.33Z" fill="#FF2290"/>
<path d="M501.878 174.89L502.097 176.554H526.653L526.872 174.89H501.878Z" fill="#FF2290"/>
<path d="M502.536 179.257L502.755 180.921H526.105L526.324 179.257H502.536Z" fill="#FF2290"/>
<path d="M503.084 183.522L503.304 185.187H525.448L525.667 183.522H503.084Z" fill="#FF2290"/>
<path d="M503.633 187.891L503.852 189.555H524.9L525.119 187.891H503.633Z" fill="#FF2290"/>
<path d="M504.291 192.257L504.51 193.817H524.352L524.571 192.257H504.291Z" fill="#FF2290"/>
<path d="M176.573 168.025H218.56V173.746H176.573V168.025Z" fill="#FAB623"/>
<path d="M175.915 190.491C180.191 195.275 192.359 195.379 196.306 195.275C197.073 195.275 197.511 195.275 197.511 195.275C197.511 195.275 213.955 196.315 219.108 190.491C221.958 187.163 220.423 182.275 218.45 178.634C218.011 177.802 217.463 176.97 217.025 176.242C216.038 174.682 215.271 173.746 215.271 173.746H179.752C179.752 173.746 178.108 175.826 176.573 178.53C174.71 182.275 173.065 187.163 175.915 190.491Z" fill="#FAB623"/>
<path d="M211.105 186.019C212.859 191.323 206.281 195.379 197.511 195.171C197.511 195.171 213.955 196.211 219.108 190.387C221.958 187.059 220.423 182.171 218.45 178.53C218.45 178.426 218.34 178.322 218.34 178.322C218.34 178.218 218.231 178.114 218.231 178.114C217.902 177.49 217.463 176.866 217.134 176.242C216.148 174.682 215.38 173.746 215.38 173.746H179.862C179.862 173.746 178.218 175.826 176.683 178.53H192.578C196.525 178.53 200.471 179.258 204.199 180.61C207.268 181.859 210.338 183.627 211.105 186.019Z" fill="#F68407"/>
<path d="M182.712 162.928C183.15 163.656 183.698 164.28 184.137 164.8C185.562 166.672 186.768 167.92 186.877 168.024H208.254C208.364 167.92 209.46 166.672 210.995 164.8C211.433 164.176 211.981 163.552 212.42 162.928C215.051 159.184 217.792 154.192 217.024 150.447C216.805 149.303 216.476 148.471 215.928 147.951C215.709 147.639 215.489 147.431 215.161 147.327C212.858 146.079 209.35 148.991 208.254 148.887C206.719 148.783 209.241 141.607 212.749 136.511C216.038 131.726 218.12 125.486 214.174 123.198C214.064 123.094 213.845 122.99 213.735 122.99C213.626 122.886 213.407 122.886 213.297 122.782C208.145 121.014 206.281 127.566 204.088 126.63C201.896 125.694 208.583 104.581 198.169 104.581C198.059 104.581 197.84 104.581 197.621 104.581C197.401 104.581 197.292 104.581 197.073 104.581C186.658 104.581 193.345 125.798 191.153 126.63C188.96 127.566 187.206 120.91 181.944 122.782C181.835 122.886 181.615 122.886 181.506 122.99C181.396 123.094 181.177 123.094 181.067 123.198C177.011 125.486 179.204 131.83 182.492 136.511C186 141.607 188.412 148.679 186.987 148.887C185.891 148.991 182.383 145.975 180.081 147.327C179.861 147.431 179.533 147.639 179.313 147.951C178.875 148.471 178.546 149.303 178.217 150.447C177.34 154.192 180.081 159.184 182.712 162.928Z" fill="#4F9D5C"/>
<path d="M197.072 104.582V168.025H198.059V104.582C197.949 104.582 197.73 104.582 197.51 104.582C197.401 104.582 197.182 104.582 197.072 104.582Z" fill="#3C7341"/>
<path d="M197.182 140.983L197.511 141.295L197.84 141.607L197.95 141.503L214.394 123.51L213.955 123.198C213.845 123.094 213.626 122.99 213.517 122.99L197.95 140.047L197.402 140.567L197.182 140.983Z" fill="#3C7341"/>
<path d="M197.181 166.984L197.51 167.296L197.839 167.608L197.949 167.504L215.817 147.951C215.598 147.639 215.379 147.431 215.05 147.327L197.949 166.048L197.4 166.568L197.181 166.984Z" fill="#3C7341"/>
<path d="M180.63 123.407L197.073 141.4L197.183 141.504L197.512 141.192L197.841 140.88L197.512 140.464L196.964 139.944L181.397 122.887C181.287 122.991 181.068 122.991 180.959 123.095L180.63 123.407Z" fill="#3C7341"/>
<path d="M179.094 147.848L196.963 167.401L197.073 167.505L197.402 167.193L197.73 166.881L197.402 166.465L196.853 165.945L179.752 147.224C179.642 147.432 179.423 147.64 179.094 147.848Z" fill="#3C7341"/>
<path opacity="0.2" d="M619.675 402.557C589.584 402.557 565.191 400.741 565.191 398.501C565.191 396.26 589.584 394.444 619.675 394.444C649.765 394.444 674.158 396.26 674.158 398.501C674.158 400.741 649.765 402.557 619.675 402.557Z" fill="#3A36DB"/>
<path d="M580.648 380.821L572.207 260.694H669.883L661.332 380.821H580.648Z" fill="#EF452F"/>
<path d="M572.975 272.031L668.677 277.231L669.335 267.767H572.646L572.975 272.031Z" fill="#AD2F24"/>
<path d="M568.918 267.766H673.061C674.487 267.766 675.692 266.622 675.692 265.27V259.758C675.692 258.406 674.487 257.262 673.061 257.262H568.918C567.493 257.262 566.287 258.406 566.287 259.758V265.27C566.287 266.622 567.493 267.766 568.918 267.766Z" fill="#EF5F44"/>
<path d="M583.169 287.008L585.581 327.154H656.508L658.92 287.008H583.169Z" fill="#AD2F24"/>
<path d="M620.99 312.072C619.053 312.072 617.482 310.582 617.482 308.744C617.482 306.906 619.053 305.416 620.99 305.416C622.927 305.416 624.498 306.906 624.498 308.744C624.498 310.582 622.927 312.072 620.99 312.072Z" fill="#EF452F"/>
<path d="M586.458 336.618L588.65 373.124H653.329L655.521 336.618H586.458Z" fill="#AD2F24"/>
<path d="M620.99 359.5C619.053 359.5 617.482 358.01 617.482 356.172C617.482 354.334 619.053 352.844 620.99 352.844C622.927 352.844 624.498 354.334 624.498 356.172C624.498 358.01 622.927 359.5 620.99 359.5Z" fill="#EF452F"/>
<path d="M631.404 380.82C631.624 380.82 631.843 380.82 631.953 380.82C641.709 380.924 650.15 387.373 652.343 396.213L653.001 398.709H660.565L661.332 380.82H631.404Z" fill="#AD2F24"/>
<path d="M610.576 380.82C610.357 380.82 610.138 380.82 610.028 380.82C600.271 380.924 591.83 387.373 589.638 396.213L588.98 398.709H581.416L580.649 380.82H610.576Z" fill="#AD2F24"/>
<path d="M640.503 197.25C640.503 197.25 649.054 199.538 658.482 187.993C665.278 179.569 677.337 161.68 694 161.368C694 161.368 674.268 153.255 656.837 161.472C639.297 169.792 629.979 191.217 640.503 197.25Z" fill="#03A89E"/>
<path d="M635.352 230.739C635.571 230.739 635.79 230.531 635.79 230.323C635.79 230.219 635.242 218.987 637.544 206.298C639.737 194.545 644.779 179.153 656.948 171.976C657.167 171.872 657.276 171.56 657.057 171.352C656.948 171.144 656.619 171.04 656.4 171.248C650.918 174.472 646.424 179.569 642.916 186.537C640.175 192.049 637.983 198.602 636.667 206.194C634.255 218.987 634.913 230.323 634.913 230.427C634.913 230.531 635.132 230.739 635.352 230.739Z" fill="#06152B"/>
<path d="M633.927 171.664C633.927 171.664 625.266 169.792 622.964 155.232C621.32 144.727 619.895 123.51 605.534 115.605C605.534 115.605 627.02 117.582 637.983 132.87C648.945 148.159 646.204 171.248 633.927 171.664Z" fill="#03A89E"/>
<path d="M622.087 231.676C622.306 231.676 622.416 231.572 622.526 231.364C622.635 231.26 628.336 216.283 632.502 197.874C634.913 187.058 636.448 177.177 636.777 168.441C637.325 157.52 636.119 148.472 633.379 141.607C633.269 141.399 633.05 141.295 632.83 141.399C632.611 141.503 632.502 141.711 632.611 141.919C638.75 157.416 635.461 180.817 631.625 197.666C627.459 216.075 621.758 230.948 621.758 231.052C621.649 231.26 621.758 231.572 621.978 231.572C621.978 231.676 621.978 231.676 622.087 231.676Z" fill="#06152B"/>
<path d="M618.797 178.737C618.797 178.737 610.027 179.881 602.353 167.088C596.872 157.832 587.554 138.591 571.11 135.991C571.11 135.991 591.939 130.582 607.944 141.087C624.059 151.799 630.088 174.161 618.797 178.737Z" fill="#03A89E"/>
<path d="M617.482 231.676C617.701 231.676 617.92 231.572 617.92 231.364C617.92 231.26 620.88 217.116 620.88 200.267C620.88 190.386 620.003 181.442 618.139 173.745C615.837 164.177 612 156.48 606.848 150.864C606.629 150.656 606.409 150.656 606.19 150.864C605.971 151.072 605.971 151.28 606.19 151.488C617.701 163.865 620.113 184.77 620.003 200.267C619.893 217.012 617.043 231.052 617.043 231.156C616.933 231.364 617.153 231.572 617.482 231.676C617.372 231.676 617.482 231.676 617.482 231.676Z" fill="#06152B"/>
<path d="M603.669 198.29C603.669 198.29 595.228 201.098 585.143 189.97C577.798 181.961 564.643 164.801 547.98 165.425C547.98 165.425 567.164 156.168 585.143 163.553C603.121 170.833 613.755 191.738 603.669 198.29Z" fill="#03A89E"/>
<path d="M611.891 231.676C612.11 231.676 612.33 231.468 612.33 231.26C612.33 231.156 612.549 221.483 609.479 209.522C607.616 202.554 605.094 196.106 601.806 190.489C597.64 183.417 592.378 177.593 586.129 173.225C585.91 173.121 585.691 173.121 585.472 173.329C585.362 173.537 585.362 173.745 585.581 173.953C599.503 183.833 605.752 198.914 608.602 209.834C611.672 221.691 611.453 231.156 611.453 231.26C611.453 231.468 611.562 231.676 611.891 231.676Z" fill="#06152B"/>
<path d="M584.595 241.66C584.595 242.908 584.814 244.156 585.253 245.508C587.007 251.124 592.049 255.285 598.188 256.117C613.097 258.093 628.445 257.989 644.231 256.013C651.137 255.181 656.728 250.188 657.824 243.636C658.043 242.492 658.043 241.452 657.934 240.308C657.605 236.564 655.522 232.923 651.576 229.283H590.953C586.568 233.235 584.595 237.396 584.595 241.66Z" fill="#FFD66B"/>
<path d="M619.017 247.38C638.31 247.38 650.808 243.844 657.824 240.827C658.043 240.723 658.153 240.515 658.043 240.307C657.933 240.099 657.714 239.995 657.495 240.099C650.479 243.012 638.201 246.548 619.017 246.548C605.423 246.548 594.022 244.78 585.142 241.347C584.923 241.243 584.594 241.347 584.594 241.555C584.485 241.763 584.594 242.076 584.814 242.076C593.803 245.612 605.313 247.38 619.017 247.38Z" fill="#F68407"/>
<path d="M40.7472 113.006H47.9824V184.146H40.7472V113.006Z" fill="#F2B441"/>
<path d="M40.6376 116.438V122.574L47.9824 124.654V116.438H40.6376Z" fill="#F28D32"/>
<path d="M4.89883 115.19C31.0991 119.038 57.4091 119.038 83.6094 115.19L64.9732 66.2034C51.1605 63.9153 37.3477 63.9153 23.6446 66.2034L4.89883 115.19Z" fill="#3A36DB"/>
<path d="M44.5833 111.446C56.5324 111.446 68.3719 110.822 80.6499 109.678C81.0884 109.678 81.3076 109.262 81.3076 108.95C81.3076 108.534 80.8692 108.326 80.5403 108.326C56.3132 110.718 33.292 110.718 8.18798 108.326C7.74948 108.326 7.42059 108.534 7.42059 108.95C7.42059 109.366 7.63982 109.678 8.07832 109.678C20.5755 110.822 32.6342 111.446 44.5833 111.446Z" fill="#3A36DB"/>
<path d="M70.4547 110.511C70.5643 110.511 70.5643 110.511 70.6739 110.511C71.1124 110.407 71.3317 109.991 71.2221 109.679L59.7115 65.8922C59.6018 65.4762 59.1633 65.2682 58.8344 65.3722C58.3959 65.4762 58.1767 65.8922 58.2863 66.2043L69.7969 109.991C69.7969 110.303 70.1258 110.511 70.4547 110.511Z" fill="#3A36DB"/>
<path d="M18.0528 110.511C18.3816 110.511 18.7105 110.303 18.8201 109.991L30.2211 66.2043C30.3307 65.7882 30.1115 65.4762 29.673 65.3722C29.2345 65.2682 28.9056 65.4762 28.796 65.8922L17.395 109.679C17.2854 110.095 17.5046 110.407 17.9431 110.511C17.9431 110.511 17.9431 110.511 18.0528 110.511Z" fill="#3A36DB"/>
<path d="M44.2541 111.446C44.6926 111.446 45.0215 111.134 45.0215 110.717V65.2671C45.0215 64.8511 44.6926 64.5391 44.2541 64.5391C43.8156 64.5391 43.4867 64.8511 43.4867 65.2671V110.822C43.5963 111.134 43.9252 111.446 44.2541 111.446Z" fill="#3A36DB"/>
<path d="M26.496 177.074V184.147H62.124V177.074L44.2552 173.122L26.496 177.074Z" fill="#3A36DB"/>
<path d="M68.9194 174.785H67.6039V172.913L116.387 173.017C118.031 173.017 119.456 173.641 120.553 174.681C121.649 175.721 122.307 177.073 122.307 178.633C122.307 181.754 119.676 184.146 116.387 184.146L67.6039 184.042V182.482H68.9194V174.785Z" fill="#FF69B4"/>
<path d="M68.5922 174.785V182.482L113.319 182.586C115.512 182.586 117.266 180.817 117.266 178.737C117.266 177.697 116.827 176.761 116.06 176.033C115.292 175.305 114.306 174.889 113.209 174.889L68.5922 174.785Z" fill="white"/>
<path d="M68.5915 176.762V177.906L112.222 178.01C112.551 178.01 112.88 177.698 112.88 177.386C112.88 177.074 112.551 176.762 112.222 176.762H68.5915Z" fill="#EAD6BF"/>
<path d="M68.5915 179.674V180.818L112.222 180.922C112.551 180.922 112.88 180.61 112.88 180.298C112.88 179.986 112.551 179.674 112.222 179.674H68.5915Z" fill="#EAD6BF"/>
<path d="M73.3042 163.656H71.9886V161.784L120.772 161.888C122.416 161.888 123.841 162.512 124.937 163.552C126.034 164.592 126.691 165.944 126.691 167.504C126.691 170.625 124.06 173.017 120.772 173.017L71.9886 172.913V171.353H73.3042V163.656Z" fill="#03A89E"/>
<path d="M72.976 163.655V171.352L117.703 171.456C119.895 171.456 121.649 169.688 121.649 167.607C121.649 166.567 121.211 165.631 120.444 164.903C119.676 164.175 118.69 163.759 117.593 163.759L72.976 163.655Z" fill="white"/>
<path d="M72.9772 165.633V166.777L116.608 166.881C116.937 166.881 117.266 166.569 117.266 166.257C117.266 165.945 116.937 165.633 116.608 165.633H72.9772Z" fill="#EAD6BF"/>
<path d="M72.9772 168.545V169.689L116.608 169.793C116.937 169.793 117.266 169.481 117.266 169.169C117.266 168.857 116.937 168.545 116.608 168.545H72.9772Z" fill="#EAD6BF"/>
<path d="M64.8637 152.528H63.5483V150.656L112.331 150.76C113.976 150.76 115.401 151.384 116.497 152.424C117.593 153.464 118.251 154.816 118.251 156.377C118.251 159.497 115.62 161.889 112.331 161.889L63.5483 161.785V160.225H64.8637V152.528Z" fill="#3A36DB"/>
<path d="M64.5346 152.527V160.224L109.261 160.328C111.454 160.328 113.208 158.56 113.208 156.48C113.208 155.44 112.769 154.503 112.002 153.775C111.235 153.047 110.248 152.631 109.152 152.631L64.5346 152.527Z" fill="white"/>
<path d="M64.5339 154.505V155.649L108.164 155.753C108.493 155.753 108.822 155.441 108.822 155.129C108.822 154.817 108.493 154.505 108.164 154.505H64.5339Z" fill="#EAD6BF"/>
<path d="M64.5339 157.417V158.561L108.164 158.665C108.493 158.665 108.822 158.353 108.822 158.041C108.822 157.729 108.493 157.417 108.164 157.417H64.5339Z" fill="#EAD6BF"/>
<path opacity="0.2" d="M68.591 404.013C30.751 404.013 0.0755463 401.452 0.0755463 398.293C0.0755463 395.133 30.751 392.572 68.591 392.572C106.431 392.572 137.106 395.133 137.106 398.293C137.106 401.452 106.431 404.013 68.591 404.013Z" fill="#3A36DB"/>
<path d="M8.84477 188.41L23.7537 398.501H113.536L128.445 188.41H8.84477Z" fill="#FAB623"/>
<path d="M9.83169 202.242L127.02 208.691L127.897 197.042H9.39317L9.83169 202.242Z" fill="#F68407"/>
<path d="M4.35123 197.042H132.941C134.476 197.042 135.682 195.898 135.682 194.442V186.746C135.682 185.29 134.476 184.146 132.941 184.146H4.35123C2.81648 184.146 1.61061 185.29 1.61061 186.746V194.442C1.61061 195.898 2.81648 197.042 4.35123 197.042Z" fill="#EDC85A"/>
<path d="M22.2201 220.756L25.18 269.846H112.112L115.072 220.756H22.2201Z" fill="#F68407"/>
<path d="M68.5906 251.541C66.1688 251.541 64.2056 249.679 64.2056 247.381C64.2056 245.083 66.1688 243.221 68.5906 243.221C71.0124 243.221 72.9756 245.083 72.9756 247.381C72.9756 249.679 71.0124 251.541 68.5906 251.541Z" fill="#FAB623"/>
<path d="M26.2757 281.391L29.0163 326.217H108.275L111.016 281.391H26.2757Z" fill="#F68407"/>
<path d="M68.5906 309.68C66.1688 309.68 64.2056 307.817 64.2056 305.52C64.2056 303.222 66.1688 301.359 68.5906 301.359C71.0124 301.359 72.9756 303.222 72.9756 305.52C72.9756 307.817 71.0124 309.68 68.5906 309.68Z" fill="#FAB623"/>
<path d="M29.7841 337.554L32.3055 378.74H104.987L107.398 337.554H29.7841Z" fill="#F68407"/>
<path d="M68.5906 362.307C66.1688 362.307 64.2056 360.444 64.2056 358.147C64.2056 355.849 66.1688 353.986 68.5906 353.986C71.0124 353.986 72.9756 355.849 72.9756 358.147C72.9756 360.444 71.0124 362.307 68.5906 362.307Z" fill="#FAB623"/>
</svg>
