<svg width="56" height="56" viewBox="0 0 56 56" fill="none" xmlns="http://www.w3.org/2000/svg">
<rect width="56" height="56" rx="28" fill="#605CFF" fill-opacity="0.3"/>
<path fill-rule="evenodd" clip-rule="evenodd" d="M26.4453 17.8234C25.6409 17.8234 24.9565 18.3824 24.7645 19.1358H31.2237C31.0316 18.3824 30.3472 17.8234 29.5428 17.8234H26.4453ZM33.0485 19.1352H35.4257C37.947 19.1352 40 21.2131 40 23.765C40 23.765 39.928 24.8453 39.904 26.3497C39.9016 26.4688 39.8439 26.5855 39.7491 26.6559C39.1716 27.0825 38.6433 27.4349 38.5953 27.4592C36.6023 28.7959 34.2863 29.7364 31.8191 30.2043C31.6582 30.2359 31.4998 30.152 31.4181 30.0086C30.7266 28.8105 29.4347 28.0303 27.994 28.0303C26.5629 28.0303 25.259 28.802 24.5471 30.0013C24.4642 30.1423 24.3082 30.2237 24.1485 30.1933C21.7017 29.7243 19.3857 28.7849 17.4047 27.4713L16.2521 26.6693C16.1561 26.6086 16.096 26.4992 16.096 26.3777C16.06 25.7579 16 23.765 16 23.765C16 21.2131 18.053 19.1352 20.5743 19.1352H22.9395C23.1676 17.3732 24.6443 16 26.4452 16H29.5428C31.3437 16 32.8204 17.3732 33.0485 19.1352ZM39.5917 28.9769L39.5437 29.0012C37.1185 30.6296 34.201 31.7111 31.1395 32.1607C30.7073 32.2215 30.275 31.942 30.155 31.5045C29.8908 30.5081 29.0384 29.8519 28.0179 29.8519H28.0059H27.9819C26.9614 29.8519 26.109 30.5081 25.8448 31.5045C25.7248 31.942 25.2925 32.2215 24.8603 32.1607C21.7988 31.7111 18.8813 30.6296 16.4561 29.0012C16.4441 28.9891 16.3241 28.9162 16.228 28.9769C16.12 29.0377 16.12 29.1835 16.12 29.1835L16.204 35.3809C16.204 37.9328 18.245 39.9986 20.7663 39.9986H35.2215C37.7428 39.9986 39.7838 37.9328 39.7838 35.3809L39.8798 29.1835C39.8798 29.1835 39.8798 29.0377 39.7718 28.9769C39.7118 28.9405 39.6397 28.9526 39.5917 28.9769ZM28.8943 34.0687C28.8943 34.5791 28.4981 34.9801 27.9938 34.9801C27.5016 34.9801 27.0934 34.5791 27.0934 34.0687V32.5011C27.0934 32.0029 27.5016 31.5898 27.9938 31.5898C28.4981 31.5898 28.8943 32.0029 28.8943 32.5011V34.0687Z" fill="#3A36DB"/>
</svg>
