<svg width="56" height="56" viewBox="0 0 56 56" fill="none" xmlns="http://www.w3.org/2000/svg">
<rect width="56" height="56" rx="28" fill="#2FE6A7" fill-opacity="0.3"/>
<path fill-rule="evenodd" clip-rule="evenodd" d="M31.164 22.0825C31.4791 22.0868 31.7949 22.0912 32.1119 22.0944C35.5172 22.0944 38 24.5222 38 27.8748V32.1811C38 35.5337 35.5172 37.9615 32.1119 37.9615C30.7478 37.9904 29.3837 38 28.0098 38C26.6359 38 25.2522 37.9904 23.8881 37.9615C20.4828 37.9615 18 35.5337 18 32.1811V27.8748C18 24.5222 20.4828 22.0944 23.8979 22.0944C25.1835 22.0751 26.4985 22.0559 27.8332 22.0559V21.8921C27.8332 21.2274 27.2738 20.6879 26.6065 20.6879H25.6349C24.526 20.6879 23.6232 19.8015 23.6232 18.7225C23.6232 18.3276 23.9568 18 24.3592 18C24.7713 18 25.0952 18.3276 25.0952 18.7225C25.0952 19.0116 25.3405 19.2428 25.6349 19.2428H26.6065C28.0883 19.2524 29.2954 20.4374 29.3052 21.8825V22.0655C29.9239 22.0655 30.5425 22.074 31.164 22.0825ZM26.8518 30.7457H25.8214V31.7669C25.8214 32.1618 25.4877 32.4894 25.0854 32.4894C24.6732 32.4894 24.3494 32.1618 24.3494 31.7669V30.7457H23.3091C22.9068 30.7457 22.5731 30.4277 22.5731 30.0231C22.5731 29.6281 22.9068 29.3006 23.3091 29.3006H24.3494V28.289C24.3494 27.894 24.6732 27.5665 25.0854 27.5665C25.4877 27.5665 25.8214 27.894 25.8214 28.289V29.3006H26.8518C27.2542 29.3006 27.5878 29.6281 27.5878 30.0231C27.5878 30.4277 27.2542 30.7457 26.8518 30.7457ZM31.0226 29.1175H31.1207C31.5231 29.1175 31.8567 28.7996 31.8567 28.395C31.8567 28 31.5231 27.6724 31.1207 27.6724H31.0226C30.6104 27.6724 30.2866 28 30.2866 28.395C30.2866 28.7996 30.6104 29.1175 31.0226 29.1175ZM32.7007 32.4316H32.7988C33.2012 32.4316 33.5348 32.1137 33.5348 31.7091C33.5348 31.3141 33.2012 30.9865 32.7988 30.9865H32.7007C32.2875 30.9865 31.9647 31.3141 31.9647 31.7091C31.9647 32.1137 32.2875 32.4316 32.7007 32.4316Z" fill="#2FE6A7"/>
</svg>
